<svg width="850" height="220" viewBox="0 0 850 220" fill="none" xmlns="http://www.w3.org/2000/svg">
  <rect width="850" height="220" rx="10" fill="#0d1117" stroke="#30363d" stroke-width="1.5"/>
  <text x="30" y="32" fill="#f0f6fc" font-family="-apple-system, BlinkMacSystemFont, 'Segoe UI', Helvetica, Arial, sans-serif" font-size="14" font-weight="700">Organization Activity History (Last 52 Weeks)</text>
  <g fill="#8b949e" font-family="-apple-system, BlinkMacSystemFont, 'Segoe UI', Helvetica, Arial, sans-serif" font-size="10">
    <text x="30" y="55">449</text>
    <line x1="60" y1="52" x2="810" y2="52" stroke="#21262d" stroke-width="1" stroke-dasharray="2 2"/>
    <text x="30" y="85">336</text>
    <line x1="60" y1="82" x2="810" y2="82" stroke="#21262d" stroke-width="1" stroke-dasharray="2 2"/>
    <text x="30" y="115">224</text>
    <line x1="60" y1="112" x2="810" y2="112" stroke="#21262d" stroke-width="1" stroke-dasharray="2 2"/>
    <text x="30" y="145">112</text>
    <line x1="60" y1="142" x2="810" y2="142" stroke="#21262d" stroke-width="1" stroke-dasharray="2 2"/>
    <text x="30" y="175">0</text>
    <line x1="60" y1="172" x2="810" y2="172" stroke="#30363d" stroke-width="1.5"/>
  </g>
  <g transform="translate(60, 0)">
    <rect x="0.0" y="171.5" width="10" height="0.5" fill="#39d353" rx="1"/>
    <rect x="84.0" y="171.7" width="10" height="0.3" fill="#39d353" rx="1"/>
    <rect x="98.0" y="170.9" width="10" height="1.1" fill="#39d353" rx="1"/>
    <rect x="112.0" y="171.2" width="10" height="0.8" fill="#39d353" rx="1"/>
    <rect x="126.0" y="171.2" width="10" height="0.8" fill="#39d353" rx="1"/>
    <rect x="266.0" y="169.6" width="10" height="2.4" fill="#39d353" rx="1"/>
    <rect x="280.0" y="169.6" width="10" height="2.4" fill="#39d353" rx="1"/>
    <rect x="308.0" y="171.2" width="10" height="0.8" fill="#39d353" rx="1"/>
    <rect x="420.0" y="171.2" width="10" height="0.8" fill="#39d353" rx="1"/>
    <rect x="434.0" y="168.5" width="10" height="3.5" fill="#39d353" rx="1"/>
    <rect x="448.0" y="161.0" width="10" height="11.0" fill="#39d353" rx="1"/>
    <rect x="462.0" y="162.1" width="10" height="9.9" fill="#39d353" rx="1"/>
    <rect x="476.0" y="118.8" width="10" height="53.2" fill="#39d353" rx="1"/>
    <rect x="490.0" y="140.2" width="10" height="31.8" fill="#39d353" rx="1"/>
    <rect x="504.0" y="164.0" width="10" height="8.0" fill="#39d353" rx="1"/>
    <rect x="518.0" y="165.9" width="10" height="6.1" fill="#39d353" rx="1"/>
    <rect x="532.0" y="123.1" width="10" height="48.9" fill="#39d353" rx="1"/>
    <rect x="546.0" y="78.7" width="10" height="93.3" fill="#39d353" rx="1"/>
    <rect x="560.0" y="130.8" width="10" height="41.2" fill="#39d353" rx="1"/>
    <rect x="574.0" y="170.4" width="10" height="1.6" fill="#39d353" rx="1"/>
    <rect x="588.0" y="166.4" width="10" height="5.6" fill="#39d353" rx="1"/>
    <rect x="602.0" y="124.7" width="10" height="47.3" fill="#39d353" rx="1"/>
    <rect x="616.0" y="141.8" width="10" height="30.2" fill="#39d353" rx="1"/>
    <rect x="630.0" y="110.3" width="10" height="61.7" fill="#39d353" rx="1"/>
    <rect x="644.0" y="95.3" width="10" height="76.7" fill="#39d353" rx="1"/>
    <rect x="658.0" y="103.3" width="10" height="68.7" fill="#39d353" rx="1"/>
    <rect x="672.0" y="118.8" width="10" height="53.2" fill="#39d353" rx="1"/>
    <rect x="686.0" y="94.5" width="10" height="77.5" fill="#39d353" rx="1"/>
    <rect x="700.0" y="52.0" width="10" height="120.0" fill="#39d353" rx="1"/>
    <rect x="714.0" y="149.0" width="10" height="23.0" fill="#39d353" rx="1"/>
  </g>
  <g transform="translate(60, 192)" fill="#8b949e" font-family="-apple-system, BlinkMacSystemFont, 'Segoe UI', Helvetica, Arial, sans-serif" font-size="10">
    <text x="0">1 Year Ago</text>
    <text x="375" text-anchor="middle">6 Months Ago</text>
    <text x="750" text-anchor="end">Now</text>
  </g>
  <text x="30" y="215" fill="#8b949e" font-family="-apple-system, BlinkMacSystemFont, 'Segoe UI', Helvetica, Arial, sans-serif" font-size="10">Last updated: 2026-09-23 16:32:09 UTC</text>
</svg>
