<svg width="850" height="220" viewBox="0 0 850 220" fill="none" xmlns="http://www.w3.org/2000/svg">
  <rect width="850" height="220" rx="10" fill="#0d1117" stroke="#30363d" stroke-width="1.5"/>
  <text x="30" y="32" fill="#f0f6fc" font-family="-apple-system, BlinkMacSystemFont, 'Segoe UI', Helvetica, Arial, sans-serif" font-size="14" font-weight="700">Organization Activity History (Last 52 Weeks)</text>
  <g fill="#8b949e" font-family="-apple-system, BlinkMacSystemFont, 'Segoe UI', Helvetica, Arial, sans-serif" font-size="10">
    <text x="30" y="55">349</text>
    <line x1="60" y1="52" x2="810" y2="52" stroke="#21262d" stroke-width="1" stroke-dasharray="2 2"/>
    <text x="30" y="85">261</text>
    <line x1="60" y1="82" x2="810" y2="82" stroke="#21262d" stroke-width="1" stroke-dasharray="2 2"/>
    <text x="30" y="115">174</text>
    <line x1="60" y1="112" x2="810" y2="112" stroke="#21262d" stroke-width="1" stroke-dasharray="2 2"/>
    <text x="30" y="145">87</text>
    <line x1="60" y1="142" x2="810" y2="142" stroke="#21262d" stroke-width="1" stroke-dasharray="2 2"/>
    <text x="30" y="175">0</text>
    <line x1="60" y1="172" x2="810" y2="172" stroke="#30363d" stroke-width="1.5"/>
  </g>
  <g transform="translate(60, 0)">
    <rect x="14.0" y="171.3" width="10" height="0.7" fill="#39d353" rx="1"/>
    <rect x="28.0" y="171.0" width="10" height="1.0" fill="#39d353" rx="1"/>
    <rect x="42.0" y="171.3" width="10" height="0.7" fill="#39d353" rx="1"/>
    <rect x="56.0" y="171.3" width="10" height="0.7" fill="#39d353" rx="1"/>
    <rect x="140.0" y="171.7" width="10" height="0.3" fill="#39d353" rx="1"/>
    <rect x="154.0" y="170.6" width="10" height="1.4" fill="#39d353" rx="1"/>
    <rect x="168.0" y="171.0" width="10" height="1.0" fill="#39d353" rx="1"/>
    <rect x="182.0" y="171.0" width="10" height="1.0" fill="#39d353" rx="1"/>
    <rect x="322.0" y="168.9" width="10" height="3.1" fill="#39d353" rx="1"/>
    <rect x="336.0" y="168.9" width="10" height="3.1" fill="#39d353" rx="1"/>
    <rect x="364.0" y="171.0" width="10" height="1.0" fill="#39d353" rx="1"/>
    <rect x="476.0" y="171.0" width="10" height="1.0" fill="#39d353" rx="1"/>
    <rect x="490.0" y="167.5" width="10" height="4.5" fill="#39d353" rx="1"/>
    <rect x="504.0" y="157.9" width="10" height="14.1" fill="#39d353" rx="1"/>
    <rect x="518.0" y="159.3" width="10" height="12.7" fill="#39d353" rx="1"/>
    <rect x="532.0" y="103.6" width="10" height="68.4" fill="#39d353" rx="1"/>
    <rect x="546.0" y="131.1" width="10" height="40.9" fill="#39d353" rx="1"/>
    <rect x="560.0" y="161.7" width="10" height="10.3" fill="#39d353" rx="1"/>
    <rect x="574.0" y="164.1" width="10" height="7.9" fill="#39d353" rx="1"/>
    <rect x="588.0" y="109.1" width="10" height="62.9" fill="#39d353" rx="1"/>
    <rect x="602.0" y="52.0" width="10" height="120.0" fill="#39d353" rx="1"/>
    <rect x="616.0" y="119.0" width="10" height="53.0" fill="#39d353" rx="1"/>
    <rect x="630.0" y="169.9" width="10" height="2.1" fill="#39d353" rx="1"/>
    <rect x="644.0" y="164.8" width="10" height="7.2" fill="#39d353" rx="1"/>
    <rect x="658.0" y="111.1" width="10" height="60.9" fill="#39d353" rx="1"/>
    <rect x="672.0" y="133.1" width="10" height="38.9" fill="#39d353" rx="1"/>
    <rect x="686.0" y="92.6" width="10" height="79.4" fill="#39d353" rx="1"/>
    <rect x="700.0" y="73.3" width="10" height="98.7" fill="#39d353" rx="1"/>
    <rect x="714.0" y="84.7" width="10" height="87.3" fill="#39d353" rx="1"/>
  </g>
  <g transform="translate(60, 192)" fill="#8b949e" font-family="-apple-system, BlinkMacSystemFont, 'Segoe UI', Helvetica, Arial, sans-serif" font-size="10">
    <text x="0">1 Year Ago</text>
    <text x="375" text-anchor="middle">6 Months Ago</text>
    <text x="750" text-anchor="end">Now</text>
  </g>
  <text x="30" y="215" fill="#8b949e" font-family="-apple-system, BlinkMacSystemFont, 'Segoe UI', Helvetica, Arial, sans-serif" font-size="10">Last updated: 2026-08-26 12:31:35 UTC</text>
</svg>
