<svg width="850" height="353" viewBox="0 0 850 353" fill="none" xmlns="http://www.w3.org/2000/svg">
  <rect width="850" height="353" rx="10" fill="#161b22" stroke="#30363d" stroke-width="1.5"/>
  <text x="510.0" y="22" fill="#8b949e" font-family="-apple-system, BlinkMacSystemFont, 'Segoe UI', Helvetica, Arial, sans-serif" font-size="11" text-anchor="middle">KB</text>
  <g fill="#c9d1d9" font-family="-apple-system, BlinkMacSystemFont, 'Segoe UI', Helvetica, Arial, sans-serif" font-size="11">
    <text x="278.0" y="35" text-anchor="middle">153</text>
    <line x1="278.0" y1="38" x2="278.0" y2="43" stroke="#f0f6fc" stroke-width="1.5"/>
    <text x="336.0" y="35" text-anchor="middle">306</text>
    <line x1="336.0" y1="38" x2="336.0" y2="43" stroke="#f0f6fc" stroke-width="1.5"/>
    <text x="394.0" y="35" text-anchor="middle">459</text>
    <line x1="394.0" y1="38" x2="394.0" y2="43" stroke="#f0f6fc" stroke-width="1.5"/>
    <text x="452.0" y="35" text-anchor="middle">612</text>
    <line x1="452.0" y1="38" x2="452.0" y2="43" stroke="#f0f6fc" stroke-width="1.5"/>
    <text x="510.0" y="35" text-anchor="middle">766</text>
    <line x1="510.0" y1="38" x2="510.0" y2="43" stroke="#f0f6fc" stroke-width="1.5"/>
    <text x="568.0" y="35" text-anchor="middle">919</text>
    <line x1="568.0" y1="38" x2="568.0" y2="43" stroke="#f0f6fc" stroke-width="1.5"/>
    <text x="626.0" y="35" text-anchor="middle">1072</text>
    <line x1="626.0" y1="38" x2="626.0" y2="43" stroke="#f0f6fc" stroke-width="1.5"/>
    <text x="684.0" y="35" text-anchor="middle">1225</text>
    <line x1="684.0" y1="38" x2="684.0" y2="43" stroke="#f0f6fc" stroke-width="1.5"/>
    <text x="742.0" y="35" text-anchor="middle">1379</text>
    <line x1="742.0" y1="38" x2="742.0" y2="43" stroke="#f0f6fc" stroke-width="1.5"/>
    <text x="800.0" y="35" text-anchor="middle">1532</text>
    <line x1="800.0" y1="38" x2="800.0" y2="43" stroke="#f0f6fc" stroke-width="1.5"/>
    <line x1="220" y1="43" x2="800" y2="43" stroke="#f0f6fc" stroke-width="1.5"/>
    <line x1="220" y1="43" x2="220" y2="338" stroke="#f0f6fc" stroke-width="1.5"/>
  </g>

  <g>
    <text x="210" y="57" fill="#c9d1d9" font-family="-apple-system, BlinkMacSystemFont, 'Segoe UI', Helvetica, Arial, sans-serif" font-size="12" text-anchor="end">JavaScript (39.1%)</text>
    <rect x="221" y="46" width="580.0" height="15" rx="1" fill="#f0883e"/>
    <text x="210" y="81" fill="#c9d1d9" font-family="-apple-system, BlinkMacSystemFont, 'Segoe UI', Helvetica, Arial, sans-serif" font-size="12" text-anchor="end">HTML (37.8%)</text>
    <rect x="221" y="70" width="560.7" height="15" rx="1" fill="#f0883e"/>
    <text x="210" y="105" fill="#c9d1d9" font-family="-apple-system, BlinkMacSystemFont, 'Segoe UI', Helvetica, Arial, sans-serif" font-size="12" text-anchor="end">Python (7.8%)</text>
    <rect x="221" y="94" width="116.4" height="15" rx="1" fill="#f0883e"/>
    <text x="210" y="129" fill="#c9d1d9" font-family="-apple-system, BlinkMacSystemFont, 'Segoe UI', Helvetica, Arial, sans-serif" font-size="12" text-anchor="end">TypeScript (7.8%)</text>
    <rect x="221" y="118" width="115.7" height="15" rx="1" fill="#f0883e"/>
    <text x="210" y="153" fill="#c9d1d9" font-family="-apple-system, BlinkMacSystemFont, 'Segoe UI', Helvetica, Arial, sans-serif" font-size="12" text-anchor="end">TeX (4.2%)</text>
    <rect x="221" y="142" width="63.0" height="15" rx="1" fill="#f0883e"/>
    <text x="210" y="177" fill="#c9d1d9" font-family="-apple-system, BlinkMacSystemFont, 'Segoe UI', Helvetica, Arial, sans-serif" font-size="12" text-anchor="end">CSS (1.1%)</text>
    <rect x="221" y="166" width="15.9" height="15" rx="1" fill="#f0883e"/>
    <text x="210" y="201" fill="#c9d1d9" font-family="-apple-system, BlinkMacSystemFont, 'Segoe UI', Helvetica, Arial, sans-serif" font-size="12" text-anchor="end">Shell (0.7%)</text>
    <rect x="221" y="190" width="10.2" height="15" rx="1" fill="#f0883e"/>
    <text x="210" y="225" fill="#c9d1d9" font-family="-apple-system, BlinkMacSystemFont, 'Segoe UI', Helvetica, Arial, sans-serif" font-size="12" text-anchor="end">HCL (0.4%)</text>
    <rect x="221" y="214" width="6.7" height="15" rx="1" fill="#f0883e"/>
    <text x="210" y="249" fill="#c9d1d9" font-family="-apple-system, BlinkMacSystemFont, 'Segoe UI', Helvetica, Arial, sans-serif" font-size="12" text-anchor="end">Kotlin (0.4%)</text>
    <rect x="221" y="238" width="5.9" height="15" rx="1" fill="#f0883e"/>
    <text x="210" y="273" fill="#c9d1d9" font-family="-apple-system, BlinkMacSystemFont, 'Segoe UI', Helvetica, Arial, sans-serif" font-size="12" text-anchor="end">Batchfile (0.3%)</text>
    <rect x="221" y="262" width="4.3" height="15" rx="1" fill="#f0883e"/>
    <text x="210" y="297" fill="#c9d1d9" font-family="-apple-system, BlinkMacSystemFont, 'Segoe UI', Helvetica, Arial, sans-serif" font-size="12" text-anchor="end">Rust (0.2%)</text>
    <rect x="221" y="286" width="3.5" height="15" rx="1" fill="#f0883e"/>
    <text x="210" y="321" fill="#c9d1d9" font-family="-apple-system, BlinkMacSystemFont, 'Segoe UI', Helvetica, Arial, sans-serif" font-size="12" text-anchor="end">PowerShell (0.2%)</text>
    <rect x="221" y="310" width="2.7" height="15" rx="1" fill="#f0883e"/>
  <text x="30" y="348" fill="#8b949e" font-family="-apple-system, BlinkMacSystemFont, 'Segoe UI', Helvetica, Arial, sans-serif" font-size="10">Last updated: 2026-08-11 07:08:59 UTC</text>
  </g>
</svg>
