<svg width="850" height="473" viewBox="0 0 850 473" fill="none" xmlns="http://www.w3.org/2000/svg">
  <rect width="850" height="473" rx="10" fill="#161b22" stroke="#30363d" stroke-width="1.5"/>
  <text x="510.0" y="22" fill="#8b949e" font-family="-apple-system, BlinkMacSystemFont, 'Segoe UI', Helvetica, Arial, sans-serif" font-size="11" text-anchor="middle">KB</text>
  <g fill="#c9d1d9" font-family="-apple-system, BlinkMacSystemFont, 'Segoe UI', Helvetica, Arial, sans-serif" font-size="11">
    <text x="278.0" y="35" text-anchor="middle">146</text>
    <line x1="278.0" y1="38" x2="278.0" y2="43" stroke="#f0f6fc" stroke-width="1.5"/>
    <text x="336.0" y="35" text-anchor="middle">292</text>
    <line x1="336.0" y1="38" x2="336.0" y2="43" stroke="#f0f6fc" stroke-width="1.5"/>
    <text x="394.0" y="35" text-anchor="middle">439</text>
    <line x1="394.0" y1="38" x2="394.0" y2="43" stroke="#f0f6fc" stroke-width="1.5"/>
    <text x="452.0" y="35" text-anchor="middle">585</text>
    <line x1="452.0" y1="38" x2="452.0" y2="43" stroke="#f0f6fc" stroke-width="1.5"/>
    <text x="510.0" y="35" text-anchor="middle">731</text>
    <line x1="510.0" y1="38" x2="510.0" y2="43" stroke="#f0f6fc" stroke-width="1.5"/>
    <text x="568.0" y="35" text-anchor="middle">878</text>
    <line x1="568.0" y1="38" x2="568.0" y2="43" stroke="#f0f6fc" stroke-width="1.5"/>
    <text x="626.0" y="35" text-anchor="middle">1024</text>
    <line x1="626.0" y1="38" x2="626.0" y2="43" stroke="#f0f6fc" stroke-width="1.5"/>
    <text x="684.0" y="35" text-anchor="middle">1171</text>
    <line x1="684.0" y1="38" x2="684.0" y2="43" stroke="#f0f6fc" stroke-width="1.5"/>
    <text x="742.0" y="35" text-anchor="middle">1317</text>
    <line x1="742.0" y1="38" x2="742.0" y2="43" stroke="#f0f6fc" stroke-width="1.5"/>
    <text x="800.0" y="35" text-anchor="middle">1463</text>
    <line x1="800.0" y1="38" x2="800.0" y2="43" stroke="#f0f6fc" stroke-width="1.5"/>
    <line x1="220" y1="43" x2="800" y2="43" stroke="#f0f6fc" stroke-width="1.5"/>
    <line x1="220" y1="43" x2="220" y2="458" stroke="#f0f6fc" stroke-width="1.5"/>
  </g>

  <g>
    <text x="210" y="57" fill="#c9d1d9" font-family="-apple-system, BlinkMacSystemFont, 'Segoe UI', Helvetica, Arial, sans-serif" font-size="12" text-anchor="end">HTML (35.0%)</text>
    <rect x="221" y="46" width="580.0" height="15" rx="1" fill="#f0883e"/>
    <text x="210" y="81" fill="#c9d1d9" font-family="-apple-system, BlinkMacSystemFont, 'Segoe UI', Helvetica, Arial, sans-serif" font-size="12" text-anchor="end">JavaScript (34.3%)</text>
    <rect x="221" y="70" width="569.3" height="15" rx="1" fill="#f0883e"/>
    <text x="210" y="105" fill="#c9d1d9" font-family="-apple-system, BlinkMacSystemFont, 'Segoe UI', Helvetica, Arial, sans-serif" font-size="12" text-anchor="end">Rust (8.7%)</text>
    <rect x="221" y="94" width="144.9" height="15" rx="1" fill="#f0883e"/>
    <text x="210" y="129" fill="#c9d1d9" font-family="-apple-system, BlinkMacSystemFont, 'Segoe UI', Helvetica, Arial, sans-serif" font-size="12" text-anchor="end">TypeScript (7.5%)</text>
    <rect x="221" y="118" width="123.6" height="15" rx="1" fill="#f0883e"/>
    <text x="210" y="153" fill="#c9d1d9" font-family="-apple-system, BlinkMacSystemFont, 'Segoe UI', Helvetica, Arial, sans-serif" font-size="12" text-anchor="end">Python (6.7%)</text>
    <rect x="221" y="142" width="110.4" height="15" rx="1" fill="#f0883e"/>
    <text x="210" y="177" fill="#c9d1d9" font-family="-apple-system, BlinkMacSystemFont, 'Segoe UI', Helvetica, Arial, sans-serif" font-size="12" text-anchor="end">TeX (4.0%)</text>
    <rect x="221" y="166" width="65.9" height="15" rx="1" fill="#f0883e"/>
    <text x="210" y="201" fill="#c9d1d9" font-family="-apple-system, BlinkMacSystemFont, 'Segoe UI', Helvetica, Arial, sans-serif" font-size="12" text-anchor="end">CSS (0.9%)</text>
    <rect x="221" y="190" width="14.4" height="15" rx="1" fill="#f0883e"/>
    <text x="210" y="225" fill="#c9d1d9" font-family="-apple-system, BlinkMacSystemFont, 'Segoe UI', Helvetica, Arial, sans-serif" font-size="12" text-anchor="end">Go (0.8%)</text>
    <rect x="221" y="214" width="13.1" height="15" rx="1" fill="#f0883e"/>
    <text x="210" y="249" fill="#c9d1d9" font-family="-apple-system, BlinkMacSystemFont, 'Segoe UI', Helvetica, Arial, sans-serif" font-size="12" text-anchor="end">Shell (0.7%)</text>
    <rect x="221" y="238" width="10.9" height="15" rx="1" fill="#f0883e"/>
    <text x="210" y="273" fill="#c9d1d9" font-family="-apple-system, BlinkMacSystemFont, 'Segoe UI', Helvetica, Arial, sans-serif" font-size="12" text-anchor="end">HCL (0.5%)</text>
    <rect x="221" y="262" width="7.6" height="15" rx="1" fill="#f0883e"/>
    <text x="210" y="297" fill="#c9d1d9" font-family="-apple-system, BlinkMacSystemFont, 'Segoe UI', Helvetica, Arial, sans-serif" font-size="12" text-anchor="end">Kotlin (0.4%)</text>
    <rect x="221" y="286" width="6.2" height="15" rx="1" fill="#f0883e"/>
    <text x="210" y="321" fill="#c9d1d9" font-family="-apple-system, BlinkMacSystemFont, 'Segoe UI', Helvetica, Arial, sans-serif" font-size="12" text-anchor="end">Batchfile (0.3%)</text>
    <rect x="221" y="310" width="4.5" height="15" rx="1" fill="#f0883e"/>
    <text x="210" y="345" fill="#c9d1d9" font-family="-apple-system, BlinkMacSystemFont, 'Segoe UI', Helvetica, Arial, sans-serif" font-size="12" text-anchor="end">PowerShell (0.2%)</text>
    <rect x="221" y="334" width="2.8" height="15" rx="1" fill="#f0883e"/>
    <text x="210" y="369" fill="#c9d1d9" font-family="-apple-system, BlinkMacSystemFont, 'Segoe UI', Helvetica, Arial, sans-serif" font-size="12" text-anchor="end">Swift (0.1%)</text>
    <rect x="221" y="358" width="2.2" height="15" rx="1" fill="#f0883e"/>
    <text x="210" y="393" fill="#c9d1d9" font-family="-apple-system, BlinkMacSystemFont, 'Segoe UI', Helvetica, Arial, sans-serif" font-size="12" text-anchor="end">Solidity (0.1%)</text>
    <rect x="221" y="382" width="1.5" height="15" rx="1" fill="#f0883e"/>
    <text x="210" y="417" fill="#c9d1d9" font-family="-apple-system, BlinkMacSystemFont, 'Segoe UI', Helvetica, Arial, sans-serif" font-size="12" text-anchor="end">Ruby (0.1%)</text>
    <rect x="221" y="406" width="1.1" height="15" rx="1" fill="#f0883e"/>
    <text x="210" y="441" fill="#c9d1d9" font-family="-apple-system, BlinkMacSystemFont, 'Segoe UI', Helvetica, Arial, sans-serif" font-size="12" text-anchor="end">Dockerfile (0.0%)</text>
    <rect x="221" y="430" width="0.5" height="15" rx="1" fill="#f0883e"/>
  <text x="30" y="468" fill="#8b949e" font-family="-apple-system, BlinkMacSystemFont, 'Segoe UI', Helvetica, Arial, sans-serif" font-size="10">Last updated: 2026-08-17 12:23:35 UTC</text>
  </g>
</svg>
